<svg width="189" height="250" viewBox="0 0 189 250" fill="none" xmlns="http://www.w3.org/2000/svg">
<path d="M94 0V250C96.5028 250 98.7147 248.781 100.091 246.911C100.101 246.911 170.671 150.816 170.671 150.816C182.189 135.124 189 115.767 189 94.8189C189 42.4517 146.467 0 94 0V0Z" fill="#7B0821"/>
<path d="M99.6173 246.911C99.6258 246.911 158.666 150.817 158.666 150.817C168.302 135.125 174 115.767 174 94.8191C174 42.4518 138.416 0 94.5216 0C42.3186 0 0 42.4518 0 94.8191C0 115.767 6.77698 135.125 18.2439 150.816C18.2359 150.816 88.4512 246.911 88.4512 246.911C89.8306 248.781 92.0315 250 94.5216 250C96.6156 250.001 98.4659 248.781 99.6173 246.911V246.911Z" fill="#BC1538"/>
<path d="M94.5 159C130.122 159 159 130.346 159 95C159 59.6538 130.122 31 94.5 31C58.8776 31 30 59.6538 30 95C30 130.346 58.8776 159 94.5 159Z" fill="white"/>
<path d="M117.449 114.076C115.395 114.076 113.114 114.292 111.517 114.292L113.57 110.614C115.167 110.614 117.221 110.614 118.818 110.398L117.449 114.076Z" fill="#D92031"/>
<path d="M112.004 127.758C109.408 127.975 106.379 128.191 104.216 128.407L107.028 122.999C108.975 122.999 111.571 122.783 113.951 122.566L112.004 127.758Z" fill="#D92031"/>
<path d="M114.587 121.126C112.79 121.359 110.319 121.359 107.623 121.593L110.319 115.986C112.565 115.986 114.587 115.752 116.384 115.752L114.587 121.126Z" fill="#D92031"/>
<path d="M91.6139 88.6684C80.4697 100.253 89.2102 109.871 111.28 110.089L109.095 113.805C80.9067 113.587 69.1069 102.658 82.4363 89.3242C92.2694 79.7066 114.776 69.4333 134.88 66.5918L133.132 69.8705C116.743 73.1492 99.9174 80.3624 91.6139 88.6684Z" fill="#D92031"/>
<path d="M79.7045 89.659C65.2597 103.854 77.9536 115.647 108.156 115.865L105.092 121.106C103.998 121.106 102.904 121.106 101.809 121.106C67.2294 121.106 54.0977 105.819 70.0746 89.2223C83.2063 76.1193 112.315 64.9817 136.827 63.6714L135.514 66.0736C113.409 68.9126 90.2098 79.1766 79.7045 89.659Z" fill="#D92031"/>
<path d="M57.8756 89.3588C73.2639 73.8538 107.997 61.8429 138.774 60.751L137.675 62.498C110.855 64.0267 81.1778 75.1641 67.5482 89.1404C50.6211 106.611 64.2508 122.989 100.743 122.989C101.842 122.989 102.941 122.989 104.04 122.989L100.963 128.667C96.786 128.886 83.1563 129.759 69.9664 125.61C48.6426 118.84 43.3667 103.99 57.8756 89.3588Z" fill="#D92031"/>
</svg>
