<svg width="44" height="58" viewBox="0 0 44 58" fill="none" xmlns="http://www.w3.org/2000/svg">
<path d="M21.998 0V58C22.5776 58 23.0898 57.7171 23.4084 57.2833C23.4108 57.2833 39.7519 34.9894 39.7519 34.9894C42.4188 31.3488 43.996 26.8578 43.996 21.998C43.996 9.8488 34.1472 0 21.998 0V0Z" fill="#7B0821"/>
<path d="M23.1839 57.2833C23.1859 57.2833 36.9264 34.9894 36.9264 34.9894C39.1688 31.3488 40.495 26.8578 40.495 21.998C40.495 9.8488 32.2136 0 21.998 0C9.8488 0 0 9.8488 0 21.998C0 26.8578 1.5772 31.3488 4.2459 34.9893C4.24404 34.9893 20.5852 57.2832 20.5852 57.2832C20.9063 57.7171 21.4185 57.9999 21.998 57.9999C22.4853 58 22.916 57.7171 23.1839 57.2833V57.2833Z" fill="#BC1538"/>
<path d="M26.7159 24.1595C26.2091 24.1595 25.6461 24.2129 25.252 24.2129L25.7587 23.3053C26.1528 23.3053 26.6595 23.3053 27.0537 23.252L26.7159 24.1595Z" fill="white"/>
<path d="M25.373 27.5356C24.7324 27.589 23.985 27.6424 23.4512 27.6958L24.1452 26.3612C24.6256 26.3612 25.2662 26.3078 25.8535 26.2544L25.373 27.5356Z" fill="white"/>
<path d="M26.0096 25.8993C25.5661 25.957 24.9563 25.957 24.291 26.0146L24.9563 24.6309C25.5106 24.6309 26.0096 24.5732 26.4531 24.5732L26.0096 25.8993Z" fill="white"/>
<path d="M20.3413 17.8899C17.5912 20.7487 19.7482 23.1221 25.1945 23.176L24.6552 24.093C17.699 24.0391 14.7872 21.3421 18.0765 18.0517C20.5031 15.6783 26.0572 13.1431 31.0182 12.4419L30.5869 13.251C26.5426 14.0601 22.3904 15.8401 20.3413 17.8899Z" fill="white"/>
<path d="M17.4012 18.1343C13.8365 21.6373 16.9691 24.5474 24.4224 24.6013L23.6663 25.8947C23.3962 25.8947 23.1262 25.8947 22.8561 25.8947C14.3226 25.8947 11.082 22.1223 15.0247 18.0265C18.2653 14.793 25.4486 12.0445 31.4977 11.7212L31.1736 12.314C25.7186 13.0146 19.9936 15.5475 17.4012 18.1343Z" fill="white"/>
<path d="M12.0153 18.0597C15.8127 14.2335 24.3841 11.2695 31.979 11L31.7078 11.4311C25.0894 11.8084 17.7657 14.5568 14.4023 18.0058C10.2251 22.3171 13.5885 26.3589 22.5939 26.3589C22.8651 26.3589 23.1364 26.3589 23.4076 26.3589L22.6482 27.7601C21.6174 27.814 18.254 28.0295 14.999 27.0056C9.73683 25.335 8.43485 21.6704 12.0153 18.0597Z" fill="white"/>
</svg>
