<?xml version="1.0" encoding="utf-8"?>
<!-- Generator: Adobe Illustrator 22.1.0, SVG Export Plug-In . SVG Version: 6.00 Build 0)  -->
<svg version="1.1" id="Layer_1" xmlns="http://www.w3.org/2000/svg" xmlns:xlink="http://www.w3.org/1999/xlink" x="0px" y="0px"
	 viewBox="0 0 187 32.2" style="enable-background:new 0 0 187 32.2;" xml:space="preserve">
<style type="text/css">
	.st0{fill:#FFFFFF;}
</style>
<g>
	<path class="st0" d="M32.2,24.9c-0.9,0-1.9,0.1-2.6,0.1l0.9-1.7c0.7,0,1.6,0,2.3-0.1L32.2,24.9z"/>
	<path class="st0" d="M29.8,31.2c-1.2,0.1-2.6,0.2-3.6,0.3l1.3-2.5c0.9,0,2.1-0.1,3.2-0.2L29.8,31.2z"/>
	<path class="st0" d="M31,28.1c-0.8,0.1-1.9,0.1-3.1,0.2l1.2-2.4c1,0,1.9-0.1,2.7-0.1L31,28.1z"/>
	<path class="st0" d="M78.1,28.5h-5.6c-2.1,0-3.5-0.5-4.4-1.6c-0.8-1-1-2.6-0.6-4.7L70,10.4c0.5-2.5,1.4-4.2,2.4-5
		c1.1-0.8,2.9-1.3,5.3-1.3h4.9l-0.6,2.8h-3.5c-1.1,0-1.9,0.2-2.4,0.7C75.7,8,75.3,8.9,75.1,10l-0.5,2.1h5.8l-0.7,3.3h-5.8l-1.3,6.3
		c-0.3,1.5-0.3,2.5,0.1,3.1c0.4,0.6,1.2,0.9,2.4,0.9h3.7L78.1,28.5z"/>
	<path class="st0" d="M94.5,28.7l-4.9-0.1l4.7-19.2c0.2-0.7,0.1-1.3-0.2-1.6c-0.3-0.4-0.9-0.6-1.7-0.6l-0.9,0l-5.2,21.4l-4.9-0.1
		L87.3,4l3.9,0.1l4.3,0.1c1.6,0,2.7,0.5,3.3,1.4c0.7,0.9,0.8,2.1,0.5,3.6L94.5,28.7z"/>
	<polygon class="st0" points="116.2,6.9 111.6,6.9 107,28.5 102.1,28.5 106.6,6.9 102.1,6.9 102.7,4.1 116.8,4.1 	"/>
	<path class="st0" d="M20.5,13.4c-5.1,5.3-1.1,9.7,9,9.8l-1,1.7c-12.9-0.1-18.3-5.1-12.2-11.2c4.5-4.4,14.8-9.1,24-10.4l-0.8,1.5
		C32,6.3,24.3,9.6,20.5,13.4"/>
	<path class="st0" d="M15.1,13.8c-6.6,6.5-0.8,11.9,13,12l-1.4,2.4c-0.5,0-1,0-1.5,0c-15.8,0-21.8-7-14.5-14.6
		C16.7,7.6,30,2.5,41.2,1.9L40.6,3C30.5,4.3,19.9,9,15.1,13.8"/>
	<path class="st0" d="M5.2,13.7c7-7.1,22.8-12.6,36.8-13.1l-0.5,0.8C29.3,2.1,15.8,7.2,9.6,13.6c-7.7,8-1.5,15.5,15.1,15.5
		c0.5,0,1,0,1.5,0l-1.4,2.6c-1.9,0.1-8.1,0.5-14.1-1.4C1,27.2-1.4,20.4,5.2,13.7"/>
	<path class="st0" d="M126,12.2l0.6-2.7c0.2-1,0.2-1.7,0-2.2c-0.2-0.4-0.6-0.6-1.3-0.6c-0.8,0-1.3,0.2-1.7,0.6
		c-0.4,0.4-0.7,1.1-0.9,2.2l-0.6,2.7H126z M127.5,28.5h-5l2.8-13.1h-3.9l-2.8,13.1h-4.9l3.8-18c0.5-2.2,1.4-3.8,2.8-4.9
		c1.4-1.2,3.3-1.7,5.5-1.7c2.4,0,4,0.5,4.9,1.6c0.9,1.1,1,2.8,0.6,5.1L127.5,28.5z"/>
	<path class="st0" d="M147.2,21.8c-0.5,2.4-1.5,4.2-2.8,5.4c-1.4,1.2-3.2,1.8-5.4,1.8c-2.2,0-3.7-0.6-4.6-1.8
		c-0.9-1.2-1.1-3-0.6-5.3l3.8-17.7h4.9l-3.7,17.6c-0.3,1.3-0.4,2.3-0.2,2.8c0.2,0.5,0.6,0.8,1.3,0.8c0.7,0,1.2-0.3,1.6-0.8
		c0.4-0.5,0.7-1.5,1-2.9L146,4.1h4.9L147.2,21.8z"/>
	<path class="st0" d="M180,16.4c0.6-3,1-5.2,1.1-6.8c0.2-1.6-0.3-2.4-1.3-2.4c-1,0-1.8,0.8-2.4,2.4c-0.5,1.6-1.1,3.8-1.7,6.7
		c-0.7,3.3-1.1,5.6-1.2,7c-0.1,1.4,0.4,2.1,1.4,2.1c1,0,1.8-0.8,2.3-2.4C178.8,21.6,179.3,19.3,180,16.4 M185,16.4
		c-1.1,4.9-2.4,8.3-3.9,10c-1.6,1.7-3.6,2.6-5.9,2.6c-2.4,0-4-0.9-4.9-2.6c-0.9-1.7-0.8-5,0.3-10c1.1-5,2.4-8.3,3.9-10
		c1.6-1.7,3.6-2.5,6-2.5c2.4,0,4.1,0.8,4.9,2.3C186.3,7.6,186.2,11.1,185,16.4"/>
	<path class="st0" d="M63.6,28.5H58c-2.1,0-3.5-0.5-4.4-1.6c-0.8-1-1-2.6-0.6-4.7l2.5-11.9c0.5-2.5,1.3-4.2,2.4-5
		c1.1-0.8,2.9-1.3,5.3-1.3h4.8l-0.6,2.8H64c-1.1,0-1.9,0.2-2.4,0.7C61.2,8,60.8,8.9,60.5,10l-0.5,2.1l-0.7,3.3l-1.4,6.3
		c-0.3,1.5-0.3,2.5,0.1,3.1c0.4,0.6,1.2,0.9,2.4,0.9h3.7L63.6,28.5z"/>
	<path class="st0" d="M161.8,19.1c0.1-0.6,0-1.1-0.2-1.4c-0.3-0.3-0.7-0.5-1.3-0.5h-2.1l-2.4,11.3h-4.9L156,4.1h7.5
		c2.1,0,3.5,0.5,4.2,1.4c0.8,0.9,0.9,2.4,0.5,4.3c-0.3,1.5-0.8,2.7-1.6,3.6c-0.8,0.9-1.8,1.5-3,1.9c1.1,0.1,2,0.6,2.5,1.3
		c0.5,0.7,0.6,1.6,0.4,2.7l-2,9.3h-4.7L161.8,19.1z M163.1,10.7c0.3-1.5,0.4-2.5,0.2-3.1c-0.2-0.5-0.7-0.8-1.6-0.8h-1.3l-1.6,7.5
		h1.4c0.7,0,1.3-0.3,1.8-0.8C162.5,13,162.8,12,163.1,10.7"/>
</g>
</svg>
